<?xml version="1.0" encoding="utf-8"?>
<!-- Generator: Adobe Illustrator 24.1.1, SVG Export Plug-In . SVG Version: 6.00 Build 0)  -->
<svg version="1.1" id="Layer_1" xmlns="http://www.w3.org/2000/svg" xmlns:xlink="http://www.w3.org/1999/xlink" x="0px" y="0px"
	 viewBox="0 0 1980 1080" style="enable-background:new 0 0 1980 1080;" xml:space="preserve">
<style type="text/css">
	.st0{fill:#5756BB;}
	.st1{fill:#A18DDD;}
	.st2{fill:#E1B1E8;}
	.st3{fill:#31294C;}
	.st4{fill:#8182DA;}
</style>
<g>
	<rect x="194.6" y="65.6" class="st0" width="2" height="342.3"/>
</g>
<g>
	<rect x="646.8" y="34.7" class="st1" width="2" height="467.2"/>
</g>
<g>
	<rect x="714.4" y="120.9" class="st2" width="2" height="253.5"/>
</g>
<g>
	<rect x="329.9" y="13.4" class="st1" width="2" height="141.2"/>
</g>
<g>
	<rect x="417.4" y="49.1" class="st1" width="2" height="139.3"/>
</g>
<g>
	<rect x="1487.9" y="41.3" class="st0" width="2" height="253.5"/>
</g>
<g>
	<rect x="1689.4" y="21.8" class="st1" width="2" height="221.6"/>
</g>
<g>
	<rect x="1776.9" y="77.8" class="st2" width="2" height="218.6"/>
</g>
<g>
	<rect x="1001.9" y="595.4" class="st1" width="2" height="343.1"/>
</g>
<g>
	<rect x="70" y="281.3" class="st3" width="2" height="376.8"/>
</g>
<g>
	<rect x="1390.9" y="437.5" class="st2" width="2" height="272.7"/>
</g>
<g>
	<rect x="28.6" y="696.4" class="st2" width="2" height="308"/>
</g>
<g>
	<rect x="140.5" y="836" class="st3" width="2" height="210"/>
</g>
<g>
	<rect x="168" y="641.3" class="st2" width="2" height="235.9"/>
</g>
<g>
	<rect x="229.3" y="318" class="st2" width="2" height="432"/>
</g>
<g>
	<rect x="250.4" y="245.7" class="st4" width="2" height="205.6"/>
</g>
<g>
	<rect x="241.6" y="667.3" class="st1" width="2" height="273.7"/>
</g>
<g>
	<rect x="1084.1" y="265.4" class="st2" width="2" height="284.9"/>
</g>
<g>
	<rect x="1151.9" y="481.9" class="st2" width="2" height="257.5"/>
</g>
<g>
	<rect x="381" y="501.9" class="st1" width="2" height="317.1"/>
</g>
<g>
	<rect x="405.5" y="714.8" class="st2" width="2" height="331.3"/>
</g>
<g>
	<rect x="512.7" y="660.4" class="st0" width="2" height="325.6"/>
</g>
<g>
	<rect x="546.8" y="374.4" class="st2" width="2" height="322"/>
</g>
<g>
	<rect x="482.1" y="186.9" class="st2" width="2" height="290.4"/>
</g>
<g>
	<rect x="783.9" y="305.8" class="st3" width="2" height="163.9"/>
</g>
<g>
	<rect x="759.4" y="437.5" class="st1" width="2" height="183.8"/>
</g>
<g>
	<rect x="692" y="590.7" class="st4" width="2" height="286.5"/>
</g>
<g>
	<rect x="921.7" y="188.4" class="st1" width="2" height="452.9"/>
</g>
<g>
	<rect x="940.1" y="501.9" class="st2" width="2" height="177.7"/>
</g>
<g>
	<rect x="1228" y="133" class="st3" width="2" height="322.2"/>
</g>
<g>
	<rect x="1202.5" y="642.9" class="st0" width="2" height="183.8"/>
</g>
<g>
	<rect x="1335.4" y="50.2" class="st0" width="2" height="337.5"/>
</g>
<g>
	<rect x="1511.5" y="566.2" class="st1" width="2" height="408.2"/>
</g>
<g>
	<rect x="1539.1" y="387.7" class="st1" width="2" height="279.6"/>
</g>
<g>
	<rect x="1736.7" y="226.1" class="st2" width="2" height="347.7"/>
</g>
<g>
	<rect x="1753.6" y="454.4" class="st4" width="2" height="334"/>
</g>
<g>
	<rect x="1707.6" y="742.4" class="st2" width="2" height="165.8"/>
</g>
<g>
	<rect x="1879.2" y="288.2" class="st3" width="2" height="251.8"/>
</g>
<rect x="37.9" class="st1" width="2" height="287.4"/>
<rect x="96.8" class="st2" width="2" height="101.3"/>
<rect x="250.4" class="st0" width="2" height="111.2"/>
<rect x="297.5" class="st2" width="2" height="245.7"/>
<rect x="432.1" class="st0" width="2" height="118.7"/>
<rect x="557.1" class="st4" width="2" height="38.4"/>
<rect x="596.8" class="st2" width="2" height="146.7"/>
<rect x="655.6" class="st3" width="2" height="168.5"/>
<rect x="811.5" class="st0" width="2" height="207.7"/>
<rect x="870.3" class="st2" width="2" height="21.6"/>
<rect x="968.1" class="st0" width="2" height="328.2"/>
<rect x="1057.4" class="st2" width="2" height="31.5"/>
<rect x="1117.3" class="st1" width="2" height="107.2"/>
<rect x="1160" class="st2" width="2" height="74.9"/>
<rect x="1283.9" class="st1" width="2" height="79.2"/>
<rect x="1294.2" class="st2" width="2" height="33.6"/>
<rect x="1370.3" class="st4" width="2" height="67.1"/>
<rect x="1390.9" class="st2" width="2" height="123.5"/>
<rect x="1420.3" class="st1" width="2" height="621.3"/>
<rect x="1610" class="st3" width="2" height="95"/>
<rect x="1657.1" class="st2" width="2" height="386.5"/>
<rect x="1791.6" class="st1" width="2" height="187.1"/>
<rect x="1864.4" class="st3" width="2" height="32.3"/>
<rect x="1901.2" class="st2" width="2" height="153.9"/>
<rect x="1911.5" class="st4" width="2" height="328.2"/>
<rect x="1958.5" class="st2" width="2" height="186.9"/>
<rect x="37.9" y="1072.4" class="st1" width="2" height="7.6"/>
<rect x="96.8" y="944.1" class="st2" width="2" height="135.9"/>
<rect x="250.4" y="1021.5" class="st0" width="2" height="58.5"/>
<rect x="297.5" y="1043.3" class="st2" width="2" height="36.7"/>
<rect x="432.1" y="1024.2" class="st0" width="2" height="55.8"/>
<rect x="557.1" y="836" class="st4" width="2" height="244"/>
<rect x="596.8" y="986" class="st2" width="2" height="94"/>
<rect x="655.6" y="966.1" class="st3" width="2" height="113.9"/>
<rect x="811.5" y="992.7" class="st0" width="2" height="87.3"/>
<rect x="870.3" y="864.4" class="st2" width="2" height="215.6"/>
<rect x="968.1" y="1065.9" class="st0" width="2" height="14.1"/>
<rect x="1057.4" y="941.8" class="st2" width="2" height="138.2"/>
<rect x="1117.3" y="904.9" class="st1" width="2" height="175.1"/>
<rect x="1160" y="1013.7" class="st2" width="2" height="66.3"/>
<rect x="1283.9" y="918" class="st1" width="2" height="162"/>
<rect x="1294.2" y="831.3" class="st2" width="2" height="248.7"/>
<rect x="1370.3" y="906.3" class="st4" width="2" height="173.7"/>
<rect x="1390.9" y="962.7" class="st2" width="2" height="117.3"/>
<rect x="1420.3" y="1035" class="st1" width="2" height="45"/>
<rect x="1610" y="908.7" class="st3" width="2" height="171.3"/>
<rect x="1657.1" y="1023.3" class="st2" width="2" height="56.7"/>
<rect x="1791.6" y="993.3" class="st1" width="2" height="86.7"/>
<rect x="1864.4" y="839.5" class="st3" width="2" height="240.5"/>
<rect x="1901.2" y="780.1" class="st2" width="2" height="299.9"/>
<rect x="1911.5" y="874.7" class="st4" width="2" height="205.3"/>
<rect x="1958.5" y="955" class="st2" width="2" height="125"/>
</svg>
